<?xml version="1.0" encoding="utf-8"?>
<!-- Generator: Adobe Illustrator 16.0.0, SVG Export Plug-In . SVG Version: 6.00 Build 0)  -->
<!DOCTYPE svg PUBLIC "-//W3C//DTD SVG 1.1//EN" "http://www.w3.org/Graphics/SVG/1.1/DTD/svg11.dtd">
<svg version="1.1" id="Calque_1" xmlns="http://www.w3.org/2000/svg" xmlns:xlink="http://www.w3.org/1999/xlink" x="0px" y="0px"
	 width="13px" height="13px" viewBox="0 0 13 13" enable-background="new 0 0 13 13" xml:space="preserve">
<g transform="translate(0.000000,1280.000000) scale(0.100000,-0.100000)">
	<path fill="#FF9800" stroke="#000000" stroke-width="0.25" stroke-miterlimit="10" d="M62.017,12795.004
		c-14.331-0.723-27.48-5.844-38.257-14.893c-1.489-1.23-4.531-4.199-5.776-5.541c-8.027-8.867-13.105-19.502-14.819-31.021
		c-0.493-3.178-0.596-4.76-0.596-8.559c0-3.746,0.103-5.342,0.596-8.545c1.714-11.621,6.816-22.227,14.907-31.123
		c1.279-1.396,4.341-4.355,5.791-5.537c9.204-7.725,20.269-12.627,32.256-14.277c3.33-0.469,4.966-0.537,8.882-0.537
		c3.96,0,5.596,0.068,8.896,0.537c11.973,1.65,23.086,6.553,32.266,14.277c1.426,1.182,4.482,4.141,5.791,5.537
		c8.135,8.896,13.193,19.502,14.902,31.123c0.498,3.203,0.576,4.799,0.576,8.545c0,3.799-0.078,5.381-0.576,8.559
		c-1.709,11.52-6.768,22.154-14.824,31.021c-1.25,1.342-4.287,4.311-5.742,5.541c-10.137,8.502-22.305,13.512-35.781,14.697
		C68.96,12794.965,63.55,12795.082,62.017,12795.004z M67.739,12757.016c7.515-0.889,13.794-4.965,17.476-11.303
		c3.018-5.113,3.672-11.68,1.787-17.393c-2.031-6.162-6.738-11.152-12.812-13.73c-2.988-1.172-5.879-1.787-9.189-1.787
		c-6.206,0-11.924,2.266-16.313,6.553c-4.365,4.199-6.714,9.629-6.714,15.635s2.349,11.459,6.714,15.674
		c3.672,3.535,8.267,5.693,13.438,6.342C63.472,12757.178,66.392,12757.178,67.739,12757.016z"/>
	<path fill="#FF9800" stroke="#000000" stroke-width="0.25" stroke-miterlimit="10" d="M64.082,12744.014
		c-4.082-0.367-7.476-3.336-8.311-7.213c-0.205-0.961-0.205-2.689,0-3.604c0.801-3.549,3.677-6.361,7.373-7.064
		c0.981-0.195,2.754-0.195,3.735,0c3.716,0.703,6.567,3.516,7.388,7.064c0.156,0.914,0.156,2.643,0,3.604
		C73.252,12741.361,68.916,12744.424,64.082,12744.014z M66.289,12742.768c1.768-0.273,3.159-0.977,4.463-2.24
		c1.641-1.539,2.451-3.414,2.451-5.537c0-2.105-0.811-3.98-2.451-5.547c-1.592-1.514-3.506-2.324-5.752-2.324
		c-2.188,0-4.141,0.811-5.752,2.324c-1.616,1.566-2.432,3.441-2.432,5.547c0,2.123,0.815,3.998,2.432,5.537
		c0.635,0.619,1.162,1.035,1.67,1.303C62.593,12742.709,64.487,12743.061,66.289,12742.768z"/>
</g>
</svg>
